<svg class="icon" style="width: 1.1416015625em;height: 1em;vertical-align: middle;fill: currentColor;overflow: hidden;" viewBox="0 0 1169 1024" version="1.1" xmlns="http://www.w3.org/2000/svg" p-id="7606" data-spm-anchor-id="a313x.search_index.i1.i1.69403a81rJgjsU">
  <path d="M829.373492 0c10.816644 0 20.463921 3.654272 27.772465 10.816644a34.56941 34.56941 0 0 1 4.238955 45.459139l-4.312041 5.115981-95.084148 89.091142h220.279495c92.453073 0 167.146385 79.882378 171.896938 182.128899l0.219256 12.863036v422.506888c0 102.831204-70.965955 187.975733-161.884234 194.626507l-11.401327 0.365428h-49.405753c0 33.76547-28.868746 60.222397-63.803583 60.222396-32.15759 0-59.272286-23.606595-63.291984-52.767682l-0.511599-7.454714H355.195204c0 33.76547-28.868746 60.222397-63.803583 60.222396-32.230676 0-59.345371-23.606595-63.291985-52.767682l-0.511598-7.454714h-54.156306c-92.453073 0-167.146385-79.809293-172.993219-182.055814L0 767.981729v-422.433802c0-104.073656 70.965955-188.121904 161.884234-194.699594l11.474413-0.365427h223.860681L302.208265 61.391764a34.934837 34.934837 0 0 1 0-50.57512A42.389551 42.389551 0 0 1 329.761473 0c8.697167 0 16.590393 2.338734 23.094997 6.943116l4.604382 3.873528 149.240454 139.593177h145.659268L801.747199 10.889729A42.389551 42.389551 0 0 1 829.519663 0z m151.725359 889.888231c50.428949 0 95.011063-47.140104 99.761616-110.505175l0.438512-11.401327V344.670901c0.730854-65.338377-40.196988-115.255728-90.114338-120.590964l-8.916423-0.511598H173.358647c-50.940547 0-95.084148 46.482335-99.834702 110.432089L73.085433 345.474841v422.506888c0 65.92306 41.366355 116.059667 91.356791 121.467989l8.916423 0.438513h807.740204z" fill="#979797" p-id="7607"/>
  <path d="M814.902577 591.041896l-346.644209 202.227392c-28.868746 16.80965-52.986939 3.654272-52.986938-31.280565v-405.624152c0-33.76547 24.118193-48.236386 52.986938-31.353651l346.717294 203.469845c28.868746 18.052102 28.868746 44.509029 0 62.561131z" fill="#979797" p-id="7608"/>
</svg>